<svg xmlns="http://www.w3.org/2000/svg" xmlns:xlink="http://www.w3.org/1999/xlink" width="820" height="193.68"><rect width="820" height="193.68" rx="0" ry="0" class="a"/><svg height="173.68" viewBox="0 0 80 17.368" width="800" x="10" xmlns="http://www.w3.org/2000/svg" xmlns:xlink="http://www.w3.org/1999/xlink" y="10"><style>@keyframes f{0%{transform:translateX(0)}.1%{transform:translateX(-80px)}2%{transform:translateX(-160px)}4.5%{transform:translateX(-400px)}11.4%{transform:translateX(-480px)}12.1%{transform:translateX(-560px)}23.2%{transform:translateX(-640px)}29.2%{transform:translateX(-720px)}36.7%{transform:translateX(-800px)}37.8%{transform:translateX(-880px)}46.2%{transform:translateX(-960px)}47%{transform:translateX(-1040px)}51.7%{transform:translateX(-1120px)}52.2%{transform:translateX(-1200px)}52.6%{transform:translateX(-1280px)}56.1%{transform:translateX(-1360px)}60.5%{transform:translateX(-1520px)}62.7%{transform:translateX(-1600px)}63.6%{transform:translateX(-1680px)}68.4%{transform:translateX(-1760px)}68.5%{transform:translateX(-1920px)}74.2%{transform:translateX(-2000px)}74.7%{transform:translateX(-2080px)}75%{transform:translateX(-2160px)}76.4%{transform:translateX(-2240px)}77.8%{transform:translateX(-2320px)}80.2%{transform:translateX(-2400px)}80.3%{transform:translateX(-2480px)}83.1%{transform:translateX(-2560px)}83.7%{transform:translateX(-2640px)}84.9%{transform:translateX(-2720px)}85%{transform:translateX(-2880px)}85.1%{transform:translateX(-3040px)}to{transform:translateX(-3120px)}}.a{fill:#282d35}.c,.h{fill:#b9c0cb;white-space:pre}.h{font-weight:700}</style><g font-family="Monaco,Consolas,Menlo,'Bitstream Vera Sans Mono','Powerline Symbols',monospace" font-size="1.67"><defs><symbol id="1"><text y="1.67" class="c">$</text></symbol><symbol id="2"><text y="1.67" class="c">$</text><text x="2.004" y="1.67" class="c">ls</text></symbol><symbol id="3"><text y="1.67" class="c">mountpoint</text><text x="16.032" y="1.67" class="c">sample.mp4</text></symbol><symbol id="4"><text y="1.67" class="c">$</text><text x="2.004" y="1.67" class="c">video-frame-fuse</text></symbol><symbol id="5"><text y="1.67" class="c">$</text><text x="2.004" y="1.67" class="c">video-frame-fuse</text><text x="19.038" y="1.67" class="c">sample.mp4</text><text x="30.06" y="1.67" class="c">mountpoint</text></symbol><symbol id="6"><text y="1.67" class="c">$</text><text x="2.004" y="1.67" class="c">c</text></symbol><symbol id="7"><text y="1.67" class="c">$</text><text x="2.004" y="1.67" class="c">cd</text></symbol><symbol id="8"><text y="1.67" class="c">$</text><text x="2.004" y="1.67" class="c">cd</text><text x="5.01" y="1.67" class="c">mountpoint</text></symbol><symbol id="9"><text y="1.67" class="c">$</text><text x="2.004" y="1.67" class="c">l</text></symbol><symbol id="10"><text y="1.67" class="c">by-frame</text></symbol><symbol id="11"><text y="1.67" class="c">$</text><text x="2.004" y="1.67" class="c">cd</text><text x="5.01" y="1.67" class="c">by-frame</text></symbol><symbol id="12"><text y="1.67" class="c">frame-181</text></symbol><symbol id="13"><text y="1.67" class="c">frame-201</text></symbol><symbol id="14"><text y="1.67" class="c">frame-222</text></symbol><symbol id="15"><text y="1.67" class="c">frame-243</text></symbol><symbol id="16"><text y="1.67" class="c">frame-264</text></symbol><symbol id="17"><text y="1.67" class="c">frame-42</text></symbol><symbol id="18"><text y="1.67" class="c">frame-63</text></symbol><symbol id="19"><text y="1.67" class="c">frame-84</text></symbol><symbol id="a"><path fill="transparent" d="M0 0h80v9H0z"/></symbol><symbol id="b"><path fill="#6f7683" d="M0 0h1.102v2.171H0z"/></symbol></defs><path class="a" d="M0 0h80v17.368H0z"/><g style="animation-duration:13.384924000000002s;animation-iteration-count:infinite;animation-name:f;animation-timing-function:steps(1,end)"><svg width="3200"><svg><use xlink:href="#a"/><use xlink:href="#b" x="-.004"/></svg><svg x="80"><use xlink:href="#a"/><use xlink:href="#b" x="1.996"/><use xlink:href="#1"/></svg><svg x="160"><use xlink:href="#a"/><use xlink:href="#b" x="3.996"/><use xlink:href="#2"/></svg><svg x="240"><use xlink:href="#a"/><use xlink:href="#b" x="-.004" y="2.146"/><use xlink:href="#2"/></svg><svg x="320"><use xlink:href="#a"/><use xlink:href="#b" x="-.004" y="4.317"/><use xlink:href="#2"/><use xlink:href="#3" y="2.171"/></svg><svg x="400"><use xlink:href="#a"/><use xlink:href="#b" x="1.996" y="4.317"/><use xlink:href="#2"/><use xlink:href="#3" y="2.171"/><use xlink:href="#1" y="4.342"/></svg><svg x="480"><use xlink:href="#a"/><use xlink:href="#b" x="2.996" y="4.317"/><use xlink:href="#2"/><use xlink:href="#3" y="2.171"/><text y="6.012" class="c">$</text><text x="2.004" y="6.012" class="c">v</text></svg><svg x="560"><use xlink:href="#a"/><use xlink:href="#b" x="17.996" y="4.317"/><use xlink:href="#2"/><use xlink:href="#3" y="2.171"/><use xlink:href="#4" y="4.342"/></svg><svg x="640"><use xlink:href="#a"/><use xlink:href="#b" x="18.996" y="4.317"/><use xlink:href="#2"/><use xlink:href="#3" y="2.171"/><use xlink:href="#4" y="4.342"/></svg><svg x="720"><use xlink:href="#a"/><use xlink:href="#b" x="29.996" y="4.317"/><use xlink:href="#2"/><use xlink:href="#3" y="2.171"/><text y="6.012" class="c">$</text><text x="2.004" y="6.012" class="c">video-frame-fuse</text><text x="19.038" y="6.012" class="c">sample.mp4</text></svg><svg x="800"><use xlink:href="#a"/><use xlink:href="#b" x="30.996" y="4.317"/><use xlink:href="#2"/><use xlink:href="#3" y="2.171"/><text y="6.012" class="c">$</text><text x="2.004" y="6.012" class="c">video-frame-fuse</text><text x="19.038" y="6.012" class="c">sample.mp4</text><text x="30.06" y="6.012" class="c">m</text></svg><svg x="880"><use xlink:href="#a"/><use xlink:href="#b" x="40.996" y="4.317"/><use xlink:href="#2"/><use xlink:href="#3" y="2.171"/><text y="6.012" class="c">$</text><text x="2.004" y="6.012" class="c">video-frame-fuse</text><text x="19.038" y="6.012" class="c">sample.mp4</text><text x="30.06" y="6.012" class="c">mountpoint</text><text x="40.08" y="6.012" class="h">/</text></svg><svg x="960"><use xlink:href="#a"/><use xlink:href="#b" x="-.004" y="6.488"/><use xlink:href="#2"/><use xlink:href="#3" y="2.171"/><use xlink:href="#5" y="4.342"/></svg><svg x="1040"><use xlink:href="#a"/><use xlink:href="#b" x="1.996" y="6.488"/><use xlink:href="#2"/><use xlink:href="#3" y="2.171"/><use xlink:href="#5" y="4.342"/><use xlink:href="#1" y="6.513"/></svg><svg x="1120"><use xlink:href="#a"/><use xlink:href="#b" x="2.996" y="6.488"/><use xlink:href="#2"/><use xlink:href="#3" y="2.171"/><use xlink:href="#5" y="4.342"/><use xlink:href="#6" y="6.513"/></svg><svg x="1200"><use xlink:href="#a"/><use xlink:href="#b" x="3.996" y="6.488"/><use xlink:href="#2"/><use xlink:href="#3" y="2.171"/><use xlink:href="#5" y="4.342"/><use xlink:href="#7" y="6.513"/></svg><svg x="1280"><use xlink:href="#a"/><use xlink:href="#b" x="4.996" y="6.488"/><use xlink:href="#2"/><use xlink:href="#3" y="2.171"/><use xlink:href="#5" y="4.342"/><use xlink:href="#7" y="6.513"/></svg><svg x="1360"><use xlink:href="#a"/><use xlink:href="#b" x="15.996" y="6.488"/><use xlink:href="#2"/><use xlink:href="#3" y="2.171"/><use xlink:href="#5" y="4.342"/><text y="8.183" class="c">$</text><text x="2.004" y="8.183" class="c">cd</text><text x="5.01" y="8.183" class="c">mountpoint</text><text x="15.03" y="8.183" class="h">/</text></svg><svg x="1440"><use xlink:href="#a"/><use xlink:href="#b" x="-.004" y="8.659"/><use xlink:href="#2"/><use xlink:href="#3" y="2.171"/><use xlink:href="#5" y="4.342"/><use xlink:href="#8" y="6.513"/></svg><svg x="1520"><use xlink:href="#a"/><use xlink:href="#b" x="1.996" y="8.659"/><use xlink:href="#2"/><use xlink:href="#3" y="2.171"/><use xlink:href="#5" y="4.342"/><use xlink:href="#8" y="6.513"/><use xlink:href="#1" y="8.684"/></svg><svg x="1600"><use xlink:href="#a"/><use xlink:href="#b" x="2.996" y="8.659"/><use xlink:href="#2"/><use xlink:href="#3" y="2.171"/><use xlink:href="#5" y="4.342"/><use xlink:href="#8" y="6.513"/><use xlink:href="#9" y="8.684"/></svg><svg x="1680"><use xlink:href="#a"/><use xlink:href="#b" x="3.996" y="8.659"/><use xlink:href="#2"/><use xlink:href="#3" y="2.171"/><use xlink:href="#5" y="4.342"/><use xlink:href="#8" y="6.513"/><use xlink:href="#2" y="8.684"/></svg><svg x="1760"><use xlink:href="#a"/><use xlink:href="#b" x="-.004" y="10.83"/><use xlink:href="#2"/><use xlink:href="#3" y="2.171"/><use xlink:href="#5" y="4.342"/><use xlink:href="#8" y="6.513"/><use xlink:href="#2" y="8.684"/></svg><svg x="1840"><use xlink:href="#a"/><use xlink:href="#b" x="-.004" y="13.001"/><use xlink:href="#2"/><use xlink:href="#3" y="2.171"/><use xlink:href="#5" y="4.342"/><use xlink:href="#8" y="6.513"/><use xlink:href="#2" y="8.684"/><use xlink:href="#10" y="10.855"/></svg><svg x="1920"><use xlink:href="#a"/><use xlink:href="#b" x="1.996" y="13.001"/><use xlink:href="#2"/><use xlink:href="#3" y="2.171"/><use xlink:href="#5" y="4.342"/><use xlink:href="#8" y="6.513"/><use xlink:href="#2" y="8.684"/><use xlink:href="#10" y="10.855"/><use xlink:href="#1" y="13.026"/></svg><svg x="2000"><use xlink:href="#a"/><use xlink:href="#b" x="2.996" y="13.001"/><use xlink:href="#2"/><use xlink:href="#3" y="2.171"/><use xlink:href="#5" y="4.342"/><use xlink:href="#8" y="6.513"/><use xlink:href="#2" y="8.684"/><use xlink:href="#10" y="10.855"/><use xlink:href="#6" y="13.026"/></svg><svg x="2080"><use xlink:href="#a"/><use xlink:href="#b" x="3.996" y="13.001"/><use xlink:href="#2"/><use xlink:href="#3" y="2.171"/><use xlink:href="#5" y="4.342"/><use xlink:href="#8" y="6.513"/><use xlink:href="#2" y="8.684"/><use xlink:href="#10" y="10.855"/><use xlink:href="#7" y="13.026"/></svg><svg x="2160"><use xlink:href="#a"/><use xlink:href="#b" x="4.996" y="13.001"/><use xlink:href="#2"/><use xlink:href="#3" y="2.171"/><use xlink:href="#5" y="4.342"/><use xlink:href="#8" y="6.513"/><use xlink:href="#2" y="8.684"/><use xlink:href="#10" y="10.855"/><use xlink:href="#7" y="13.026"/></svg><svg x="2240"><use xlink:href="#a"/><use xlink:href="#b" x="5.996" y="13.001"/><use xlink:href="#2"/><use xlink:href="#3" y="2.171"/><use xlink:href="#5" y="4.342"/><use xlink:href="#8" y="6.513"/><use xlink:href="#2" y="8.684"/><use xlink:href="#10" y="10.855"/><text y="14.696" class="c">$</text><text x="2.004" y="14.696" class="c">cd</text><text x="5.01" y="14.696" class="c">b</text></svg><svg x="2320"><use xlink:href="#a"/><use xlink:href="#b" x="13.996" y="13.001"/><use xlink:href="#2"/><use xlink:href="#3" y="2.171"/><use xlink:href="#5" y="4.342"/><use xlink:href="#8" y="6.513"/><use xlink:href="#2" y="8.684"/><use xlink:href="#10" y="10.855"/><text y="14.696" class="c">$</text><text x="2.004" y="14.696" class="c">cd</text><text x="5.01" y="14.696" class="c">by-frame</text><text x="13.026" y="14.696" class="h">/</text></svg><svg x="2400"><use xlink:href="#a"/><use xlink:href="#b" x="-.004" y="15.172"/><use xlink:href="#2"/><use xlink:href="#3" y="2.171"/><use xlink:href="#5" y="4.342"/><use xlink:href="#8" y="6.513"/><use xlink:href="#2" y="8.684"/><use xlink:href="#10" y="10.855"/><use xlink:href="#11" y="13.026"/></svg><svg x="2480"><use xlink:href="#a"/><use xlink:href="#b" x="1.996" y="15.172"/><use xlink:href="#2"/><use xlink:href="#3" y="2.171"/><use xlink:href="#5" y="4.342"/><use xlink:href="#8" y="6.513"/><use xlink:href="#2" y="8.684"/><use xlink:href="#10" y="10.855"/><use xlink:href="#11" y="13.026"/><use xlink:href="#1" y="15.197"/></svg><svg x="2560"><use xlink:href="#a"/><use xlink:href="#b" x="2.996" y="15.172"/><use xlink:href="#2"/><use xlink:href="#3" y="2.171"/><use xlink:href="#5" y="4.342"/><use xlink:href="#8" y="6.513"/><use xlink:href="#2" y="8.684"/><use xlink:href="#10" y="10.855"/><use xlink:href="#11" y="13.026"/><use xlink:href="#9" y="15.197"/></svg><svg x="2640"><use xlink:href="#a"/><use xlink:href="#b" x="3.996" y="15.172"/><use xlink:href="#2"/><use xlink:href="#3" y="2.171"/><use xlink:href="#5" y="4.342"/><use xlink:href="#8" y="6.513"/><use xlink:href="#2" y="8.684"/><use xlink:href="#10" y="10.855"/><use xlink:href="#11" y="13.026"/><use xlink:href="#2" y="15.197"/></svg><svg x="2720"><use xlink:href="#a"/><use xlink:href="#b" x="-.004" y="17.343"/><use xlink:href="#2"/><use xlink:href="#3" y="2.171"/><use xlink:href="#5" y="4.342"/><use xlink:href="#8" y="6.513"/><use xlink:href="#2" y="8.684"/><use xlink:href="#10" y="10.855"/><use xlink:href="#11" y="13.026"/><use xlink:href="#2" y="15.197"/></svg><svg x="2800"><use xlink:href="#a"/><use xlink:href="#b" x="-.004" y="17.343"/><text y="1.67" class="c">frame-187</text><text y="3.841" class="c">frame-207</text><text y="6.012" class="c">frame-228</text><text y="8.183" class="c">frame-249</text><text y="10.354" class="c">frame-27</text><text y="12.525" class="c">frame-48</text><text y="14.696" class="c">frame-69</text><text y="16.867" class="c">frame-9</text></svg><svg x="2880"><use xlink:href="#a"/><use xlink:href="#b" x="6.996" y="17.343"/><text y="1.67" class="c">frame-132</text><text y="3.841" class="c">frame-153</text><text y="6.012" class="c">frame-174</text><text y="8.183" class="c">frame-195</text><text y="10.354" class="c">frame-215</text><text y="12.525" class="c">frame-236</text><text y="14.696" class="c">frame-257</text><text y="16.867" class="c">frame-35</text><text y="19.038" class="c">frame-5</text></svg><svg x="2960"><use xlink:href="#a"/><use xlink:href="#b" x="-.004" y="17.343"/><use xlink:href="#12"/><use xlink:href="#13" y="2.171"/><use xlink:href="#14" y="4.342"/><use xlink:href="#15" y="6.513"/><use xlink:href="#16" y="8.684"/><use xlink:href="#17" y="10.855"/><use xlink:href="#18" y="13.026"/><use xlink:href="#19" y="15.197"/></svg><svg x="3040"><use xlink:href="#a"/><use xlink:href="#b" x="1.996" y="17.343"/><use xlink:href="#12"/><use xlink:href="#13" y="2.171"/><use xlink:href="#14" y="4.342"/><use xlink:href="#15" y="6.513"/><use xlink:href="#16" y="8.684"/><use xlink:href="#17" y="10.855"/><use xlink:href="#18" y="13.026"/><use xlink:href="#19" y="15.197"/><use xlink:href="#1" y="17.368"/></svg><svg x="3120"><use xlink:href="#a"/><use xlink:href="#b" x="1.996" y="17.343"/><use xlink:href="#12"/><use xlink:href="#13" y="2.171"/><use xlink:href="#14" y="4.342"/><use xlink:href="#15" y="6.513"/><use xlink:href="#16" y="8.684"/><use xlink:href="#17" y="10.855"/><use xlink:href="#18" y="13.026"/><use xlink:href="#19" y="15.197"/><use xlink:href="#1" y="17.368"/></svg></svg></g></g></svg></svg>