<svg xmlns="http://www.w3.org/2000/svg" xmlns:xlink="http://www.w3.org/1999/xlink" width="820" height="193.68"><rect width="820" height="193.68" rx="0" ry="0" class="a"/><svg height="173.68" viewBox="0 0 80 17.368" width="800" x="10" xmlns="http://www.w3.org/2000/svg" xmlns:xlink="http://www.w3.org/1999/xlink" y="10"><style>@keyframes g{0%{transform:translateX(0)}.5%{transform:translateX(-80px)}4.1%{transform:translateX(-160px)}4.7%{transform:translateX(-240px)}9.3%{transform:translateX(-320px)}9.4%{transform:translateX(-480px)}12.4%{transform:translateX(-560px)}12.8%{transform:translateX(-640px)}13.5%{transform:translateX(-720px)}13.8%{transform:translateX(-800px)}14.4%{transform:translateX(-880px)}15.5%{transform:translateX(-960px)}18.3%{transform:translateX(-1200px)}29.4%{transform:translateX(-1280px)}30.7%{transform:translateX(-1360px)}31.7%{transform:translateX(-1440px)}32.2%{transform:translateX(-1520px)}33.3%{transform:translateX(-1600px)}33.9%{transform:translateX(-1680px)}34.8%{transform:translateX(-1760px)}37%{transform:translateX(-1840px)}37.9%{transform:translateX(-1920px)}38.9%{transform:translateX(-2000px)}40.7%{transform:translateX(-2080px)}44.2%{transform:translateX(-2160px)}44.4%{transform:translateX(-2320px)}50.4%{transform:translateX(-2400px)}50.9%{transform:translateX(-2480px)}51.4%{transform:translateX(-2560px)}51.8%{transform:translateX(-2640px)}52.4%{transform:translateX(-2720px)}53.2%{transform:translateX(-2800px)}54.9%{transform:translateX(-2880px)}55%{transform:translateX(-2960px)}73.3%{transform:translateX(-3040px)}74%{transform:translateX(-3120px)}74.4%{transform:translateX(-3200px)}75.3%{transform:translateX(-3280px)}76.2%{transform:translateX(-3360px)}77.6%{transform:translateX(-3440px)}78.6%{transform:translateX(-3520px)}79.1%{transform:translateX(-3600px)}80%{transform:translateX(-3680px)}84.2%{transform:translateX(-3840px)}88.4%{transform:translateX(-3920px)}89%{transform:translateX(-4000px)}89.5%{transform:translateX(-4080px)}89.6%{transform:translateX(-4240px)}to{transform:translateX(-4320px)}}.a{fill:#282d35}.c,.d{fill:#b9c0cb;white-space:pre}.d{font-weight:700}</style><g font-family="Monaco,Consolas,Menlo,'Bitstream Vera Sans Mono','Powerline Symbols',monospace" font-size="1.67"><defs><symbol id="1"><text y="1.67" class="c">$</text></symbol><symbol id="2"><text y="1.67" class="c">$</text><text x="2.004" y="1.67" class="c">l</text></symbol><symbol id="3"><text y="1.67" class="c">$</text><text x="2.004" y="1.67" class="c">ls</text></symbol><symbol id="4"><text y="1.67" class="c">mountpoint</text><text x="16.032" y="1.67" class="c">sample.mp4</text></symbol><symbol id="5"><text y="1.67" class="c">$</text><text x="2.004" y="1.67" class="c">ls</text><text x="5.01" y="1.67" class="c">m</text></symbol><symbol id="6"><text y="1.67" class="c">$</text><text x="2.004" y="1.67" class="c">ls</text><text x="5.01" y="1.67" class="c">mo</text></symbol><symbol id="7"><text y="1.67" class="c">$</text><text x="2.004" y="1.67" class="c">ls</text><text x="5.01" y="1.67" class="c">mountpoint</text><text x="15.03" y="1.67" class="d">/</text></symbol><symbol id="8"><text y="1.67" class="c">$</text><text x="2.004" y="1.67" class="c">ls</text><text x="5.01" y="1.67" class="c">mountpoint</text></symbol><symbol id="9"><text y="1.67" class="c">by-frame</text></symbol><symbol id="10"><text y="1.67" class="c">$</text><text x="2.004" y="1.67" class="c">umount</text></symbol><symbol id="11"><text y="1.67" class="c">$</text><text x="2.004" y="1.67" class="c">umount</text><text x="9.018" y="1.67" class="c">mountpoint</text></symbol><symbol id="12"><text y="1.67" class="c">$</text><text x="2.004" y="1.67" class="c">rm</text></symbol><symbol id="13"><text y="1.67" class="c">$</text><text x="2.004" y="1.67" class="c">rm</text><text x="5.01" y="1.67" class="c">-r</text></symbol><symbol id="14"><text y="1.67" class="c">$</text><text x="2.004" y="1.67" class="c">rm</text><text x="5.01" y="1.67" class="c">-r</text><text x="8.016" y="1.67" class="c">mountpoint</text></symbol><symbol id="15"><text y="1.67" class="c">sample.mp4</text></symbol><symbol id="a"><path fill="transparent" d="M0 0h80v9H0z"/></symbol><symbol id="b"><path fill="#6f7683" d="M0 0h1.102v2.171H0z"/></symbol></defs><path class="a" d="M0 0h80v17.368H0z"/><g style="animation-duration:16.140021s;animation-iteration-count:infinite;animation-name:g;animation-timing-function:steps(1,end)"><svg width="4400"><svg><use xlink:href="#a"/><use xlink:href="#b" x="-.004"/></svg><svg x="80"><use xlink:href="#a"/><use xlink:href="#b" x="1.996"/><use xlink:href="#1"/></svg><svg x="160"><use xlink:href="#a"/><use xlink:href="#b" x="2.996"/><use xlink:href="#2"/></svg><svg x="240"><use xlink:href="#a"/><use xlink:href="#b" x="3.996"/><use xlink:href="#3"/></svg><svg x="320"><use xlink:href="#a"/><use xlink:href="#b" x="-.004" y="2.146"/><use xlink:href="#3"/></svg><svg x="400"><use xlink:href="#a"/><use xlink:href="#b" x="-.004" y="4.317"/><use xlink:href="#3"/><use xlink:href="#4" y="2.171"/></svg><svg x="480"><use xlink:href="#a"/><use xlink:href="#b" x="1.996" y="4.317"/><use xlink:href="#3"/><use xlink:href="#4" y="2.171"/><use xlink:href="#1" y="4.342"/></svg><svg x="560"><use xlink:href="#a"/><use xlink:href="#b" x="2.996" y="4.317"/><use xlink:href="#3"/><use xlink:href="#4" y="2.171"/><use xlink:href="#2" y="4.342"/></svg><svg x="640"><use xlink:href="#a"/><use xlink:href="#b" x="3.996" y="4.317"/><use xlink:href="#3"/><use xlink:href="#4" y="2.171"/><use xlink:href="#3" y="4.342"/></svg><svg x="720"><use xlink:href="#a"/><use xlink:href="#b" x="4.996" y="4.317"/><use xlink:href="#3"/><use xlink:href="#4" y="2.171"/><use xlink:href="#3" y="4.342"/></svg><svg x="800"><use xlink:href="#a"/><use xlink:href="#b" x="5.996" y="4.317"/><use xlink:href="#3"/><use xlink:href="#4" y="2.171"/><use xlink:href="#5" y="4.342"/></svg><svg x="880"><use xlink:href="#a"/><use xlink:href="#b" x="6.996" y="4.317"/><use xlink:href="#3"/><use xlink:href="#4" y="2.171"/><use xlink:href="#6" y="4.342"/></svg><svg x="960"><use xlink:href="#a"/><use xlink:href="#b" x="15.996" y="4.317"/><use xlink:href="#3"/><use xlink:href="#4" y="2.171"/><use xlink:href="#7" y="4.342"/></svg><svg x="1040"><use xlink:href="#a"/><use xlink:href="#b" x="-.004" y="6.488"/><use xlink:href="#3"/><use xlink:href="#4" y="2.171"/><use xlink:href="#8" y="4.342"/></svg><svg x="1120"><use xlink:href="#a"/><use xlink:href="#b" x="-.004" y="8.659"/><use xlink:href="#3"/><use xlink:href="#4" y="2.171"/><use xlink:href="#8" y="4.342"/><use xlink:href="#9" y="6.513"/></svg><svg x="1200"><use xlink:href="#a"/><use xlink:href="#b" x="1.996" y="8.659"/><use xlink:href="#3"/><use xlink:href="#4" y="2.171"/><use xlink:href="#8" y="4.342"/><use xlink:href="#9" y="6.513"/><use xlink:href="#1" y="8.684"/></svg><svg x="1280"><use xlink:href="#a"/><use xlink:href="#b" x="2.996" y="8.659"/><use xlink:href="#3"/><use xlink:href="#4" y="2.171"/><use xlink:href="#8" y="4.342"/><use xlink:href="#9" y="6.513"/><text y="10.354" class="c">$</text><text x="2.004" y="10.354" class="c">u</text></svg><svg x="1360"><use xlink:href="#a"/><use xlink:href="#b" x="3.996" y="8.659"/><use xlink:href="#3"/><use xlink:href="#4" y="2.171"/><use xlink:href="#8" y="4.342"/><use xlink:href="#9" y="6.513"/><text y="10.354" class="c">$</text><text x="2.004" y="10.354" class="c">um</text></svg><svg x="1440"><use xlink:href="#a"/><use xlink:href="#b" x="4.996" y="8.659"/><use xlink:href="#3"/><use xlink:href="#4" y="2.171"/><use xlink:href="#8" y="4.342"/><use xlink:href="#9" y="6.513"/><text y="10.354" class="c">$</text><text x="2.004" y="10.354" class="c">umo</text></svg><svg x="1520"><use xlink:href="#a"/><use xlink:href="#b" x="5.996" y="8.659"/><use xlink:href="#3"/><use xlink:href="#4" y="2.171"/><use xlink:href="#8" y="4.342"/><use xlink:href="#9" y="6.513"/><text y="10.354" class="c">$</text><text x="2.004" y="10.354" class="c">umou</text></svg><svg x="1600"><use xlink:href="#a"/><use xlink:href="#b" x="6.996" y="8.659"/><use xlink:href="#3"/><use xlink:href="#4" y="2.171"/><use xlink:href="#8" y="4.342"/><use xlink:href="#9" y="6.513"/><text y="10.354" class="c">$</text><text x="2.004" y="10.354" class="c">umoun</text></svg><svg x="1680"><use xlink:href="#a"/><use xlink:href="#b" x="7.996" y="8.659"/><use xlink:href="#3"/><use xlink:href="#4" y="2.171"/><use xlink:href="#8" y="4.342"/><use xlink:href="#9" y="6.513"/><use xlink:href="#10" y="8.684"/></svg><svg x="1760"><use xlink:href="#a"/><use xlink:href="#b" x="8.996" y="8.659"/><use xlink:href="#3"/><use xlink:href="#4" y="2.171"/><use xlink:href="#8" y="4.342"/><use xlink:href="#9" y="6.513"/><use xlink:href="#10" y="8.684"/></svg><svg x="1840"><use xlink:href="#a"/><use xlink:href="#b" x="9.996" y="8.659"/><use xlink:href="#3"/><use xlink:href="#4" y="2.171"/><use xlink:href="#8" y="4.342"/><use xlink:href="#9" y="6.513"/><text y="10.354" class="c">$</text><text x="2.004" y="10.354" class="c">umount</text><text x="9.018" y="10.354" class="c">m</text></svg><svg x="1920"><use xlink:href="#a"/><use xlink:href="#b" x="10.996" y="8.659"/><use xlink:href="#3"/><use xlink:href="#4" y="2.171"/><use xlink:href="#8" y="4.342"/><use xlink:href="#9" y="6.513"/><text y="10.354" class="c">$</text><text x="2.004" y="10.354" class="c">umount</text><text x="9.018" y="10.354" class="c">mo</text></svg><svg x="2000"><use xlink:href="#a"/><use xlink:href="#b" x="11.996" y="8.659"/><use xlink:href="#3"/><use xlink:href="#4" y="2.171"/><use xlink:href="#8" y="4.342"/><use xlink:href="#9" y="6.513"/><text y="10.354" class="c">$</text><text x="2.004" y="10.354" class="c">umount</text><text x="9.018" y="10.354" class="c">mou</text></svg><svg x="2080"><use xlink:href="#a"/><use xlink:href="#b" x="19.996" y="8.659"/><use xlink:href="#3"/><use xlink:href="#4" y="2.171"/><use xlink:href="#8" y="4.342"/><use xlink:href="#9" y="6.513"/><text y="10.354" class="c">$</text><text x="2.004" y="10.354" class="c">umount</text><text x="9.018" y="10.354" class="c">mountpoint</text><text x="19.038" y="10.354" class="d">/</text></svg><svg x="2160"><use xlink:href="#a"/><use xlink:href="#b" x="-.004" y="10.83"/><use xlink:href="#3"/><use xlink:href="#4" y="2.171"/><use xlink:href="#8" y="4.342"/><use xlink:href="#9" y="6.513"/><use xlink:href="#11" y="8.684"/></svg><svg x="2240"><use xlink:href="#a"/><use xlink:href="#b" x="1.996" y="10.83"/><use xlink:href="#3"/><use xlink:href="#4" y="2.171"/><use xlink:href="#8" y="4.342"/><use xlink:href="#9" y="6.513"/><use xlink:href="#11" y="8.684"/><use xlink:href="#1" y="10.855"/></svg><svg x="2320"><use xlink:href="#a"/><use xlink:href="#b" x="1.996" y="10.83"/><use xlink:href="#3"/><use xlink:href="#4" y="2.171"/><use xlink:href="#8" y="4.342"/><use xlink:href="#9" y="6.513"/><use xlink:href="#11" y="8.684"/><use xlink:href="#1" y="10.855"/></svg><svg x="2400"><use xlink:href="#a"/><use xlink:href="#b" x="2.996" y="10.83"/><use xlink:href="#3"/><use xlink:href="#4" y="2.171"/><use xlink:href="#8" y="4.342"/><use xlink:href="#9" y="6.513"/><use xlink:href="#11" y="8.684"/><use xlink:href="#2" y="10.855"/></svg><svg x="2480"><use xlink:href="#a"/><use xlink:href="#b" x="3.996" y="10.83"/><use xlink:href="#3"/><use xlink:href="#4" y="2.171"/><use xlink:href="#8" y="4.342"/><use xlink:href="#9" y="6.513"/><use xlink:href="#11" y="8.684"/><use xlink:href="#3" y="10.855"/></svg><svg x="2560"><use xlink:href="#a"/><use xlink:href="#b" x="4.996" y="10.83"/><use xlink:href="#3"/><use xlink:href="#4" y="2.171"/><use xlink:href="#8" y="4.342"/><use xlink:href="#9" y="6.513"/><use xlink:href="#11" y="8.684"/><use xlink:href="#3" y="10.855"/></svg><svg x="2640"><use xlink:href="#a"/><use xlink:href="#b" x="5.996" y="10.83"/><use xlink:href="#3"/><use xlink:href="#4" y="2.171"/><use xlink:href="#8" y="4.342"/><use xlink:href="#9" y="6.513"/><use xlink:href="#11" y="8.684"/><use xlink:href="#5" y="10.855"/></svg><svg x="2720"><use xlink:href="#a"/><use xlink:href="#b" x="6.996" y="10.83"/><use xlink:href="#3"/><use xlink:href="#4" y="2.171"/><use xlink:href="#8" y="4.342"/><use xlink:href="#9" y="6.513"/><use xlink:href="#11" y="8.684"/><use xlink:href="#6" y="10.855"/></svg><svg x="2800"><use xlink:href="#a"/><use xlink:href="#b" x="15.996" y="10.83"/><use xlink:href="#3"/><use xlink:href="#4" y="2.171"/><use xlink:href="#8" y="4.342"/><use xlink:href="#9" y="6.513"/><use xlink:href="#11" y="8.684"/><use xlink:href="#7" y="10.855"/></svg><svg x="2880"><use xlink:href="#a"/><use xlink:href="#b" x="-.004" y="13.001"/><use xlink:href="#3"/><use xlink:href="#4" y="2.171"/><use xlink:href="#8" y="4.342"/><use xlink:href="#9" y="6.513"/><use xlink:href="#11" y="8.684"/><use xlink:href="#8" y="10.855"/></svg><svg x="2960"><use xlink:href="#a"/><use xlink:href="#b" x="1.996" y="13.001"/><use xlink:href="#3"/><use xlink:href="#4" y="2.171"/><use xlink:href="#8" y="4.342"/><use xlink:href="#9" y="6.513"/><use xlink:href="#11" y="8.684"/><use xlink:href="#8" y="10.855"/><use xlink:href="#1" y="13.026"/></svg><svg x="3040"><use xlink:href="#a"/><use xlink:href="#b" x="2.996" y="13.001"/><use xlink:href="#3"/><use xlink:href="#4" y="2.171"/><use xlink:href="#8" y="4.342"/><use xlink:href="#9" y="6.513"/><use xlink:href="#11" y="8.684"/><use xlink:href="#8" y="10.855"/><text y="14.696" class="c">$</text><text x="2.004" y="14.696" class="c">r</text></svg><svg x="3120"><use xlink:href="#a"/><use xlink:href="#b" x="3.996" y="13.001"/><use xlink:href="#3"/><use xlink:href="#4" y="2.171"/><use xlink:href="#8" y="4.342"/><use xlink:href="#9" y="6.513"/><use xlink:href="#11" y="8.684"/><use xlink:href="#8" y="10.855"/><use xlink:href="#12" y="13.026"/></svg><svg x="3200"><use xlink:href="#a"/><use xlink:href="#b" x="4.996" y="13.001"/><use xlink:href="#3"/><use xlink:href="#4" y="2.171"/><use xlink:href="#8" y="4.342"/><use xlink:href="#9" y="6.513"/><use xlink:href="#11" y="8.684"/><use xlink:href="#8" y="10.855"/><use xlink:href="#12" y="13.026"/></svg><svg x="3280"><use xlink:href="#a"/><use xlink:href="#b" x="5.996" y="13.001"/><use xlink:href="#3"/><use xlink:href="#4" y="2.171"/><use xlink:href="#8" y="4.342"/><use xlink:href="#9" y="6.513"/><use xlink:href="#11" y="8.684"/><use xlink:href="#8" y="10.855"/><text y="14.696" class="c">$</text><text x="2.004" y="14.696" class="c">rm</text><text x="5.01" y="14.696" class="c">-</text></svg><svg x="3360"><use xlink:href="#a"/><use xlink:href="#b" x="6.996" y="13.001"/><use xlink:href="#3"/><use xlink:href="#4" y="2.171"/><use xlink:href="#8" y="4.342"/><use xlink:href="#9" y="6.513"/><use xlink:href="#11" y="8.684"/><use xlink:href="#8" y="10.855"/><use xlink:href="#13" y="13.026"/></svg><svg x="3440"><use xlink:href="#a"/><use xlink:href="#b" x="7.996" y="13.001"/><use xlink:href="#3"/><use xlink:href="#4" y="2.171"/><use xlink:href="#8" y="4.342"/><use xlink:href="#9" y="6.513"/><use xlink:href="#11" y="8.684"/><use xlink:href="#8" y="10.855"/><use xlink:href="#13" y="13.026"/></svg><svg x="3520"><use xlink:href="#a"/><use xlink:href="#b" x="8.996" y="13.001"/><use xlink:href="#3"/><use xlink:href="#4" y="2.171"/><use xlink:href="#8" y="4.342"/><use xlink:href="#9" y="6.513"/><use xlink:href="#11" y="8.684"/><use xlink:href="#8" y="10.855"/><text y="14.696" class="c">$</text><text x="2.004" y="14.696" class="c">rm</text><text x="5.01" y="14.696" class="c">-r</text><text x="8.016" y="14.696" class="c">m</text></svg><svg x="3600"><use xlink:href="#a"/><use xlink:href="#b" x="9.996" y="13.001"/><use xlink:href="#3"/><use xlink:href="#4" y="2.171"/><use xlink:href="#8" y="4.342"/><use xlink:href="#9" y="6.513"/><use xlink:href="#11" y="8.684"/><use xlink:href="#8" y="10.855"/><text y="14.696" class="c">$</text><text x="2.004" y="14.696" class="c">rm</text><text x="5.01" y="14.696" class="c">-r</text><text x="8.016" y="14.696" class="c">mo</text></svg><svg x="3680"><use xlink:href="#a"/><use xlink:href="#b" x="18.996" y="13.001"/><use xlink:href="#3"/><use xlink:href="#4" y="2.171"/><use xlink:href="#8" y="4.342"/><use xlink:href="#9" y="6.513"/><use xlink:href="#11" y="8.684"/><use xlink:href="#8" y="10.855"/><text y="14.696" class="c">$</text><text x="2.004" y="14.696" class="c">rm</text><text x="5.01" y="14.696" class="c">-r</text><text x="8.016" y="14.696" class="c">mountpoint</text><text x="18.036" y="14.696" class="d">/</text></svg><svg x="3760"><use xlink:href="#a"/><use xlink:href="#b" x="-.004" y="15.172"/><use xlink:href="#3"/><use xlink:href="#4" y="2.171"/><use xlink:href="#8" y="4.342"/><use xlink:href="#9" y="6.513"/><use xlink:href="#11" y="8.684"/><use xlink:href="#8" y="10.855"/><use xlink:href="#14" y="13.026"/></svg><svg x="3840"><use xlink:href="#a"/><use xlink:href="#b" x="1.996" y="15.172"/><use xlink:href="#3"/><use xlink:href="#4" y="2.171"/><use xlink:href="#8" y="4.342"/><use xlink:href="#9" y="6.513"/><use xlink:href="#11" y="8.684"/><use xlink:href="#8" y="10.855"/><use xlink:href="#14" y="13.026"/><use xlink:href="#1" y="15.197"/></svg><svg x="3920"><use xlink:href="#a"/><use xlink:href="#b" x="2.996" y="15.172"/><use xlink:href="#3"/><use xlink:href="#4" y="2.171"/><use xlink:href="#8" y="4.342"/><use xlink:href="#9" y="6.513"/><use xlink:href="#11" y="8.684"/><use xlink:href="#8" y="10.855"/><use xlink:href="#14" y="13.026"/><use xlink:href="#2" y="15.197"/></svg><svg x="4000"><use xlink:href="#a"/><use xlink:href="#b" x="3.996" y="15.172"/><use xlink:href="#3"/><use xlink:href="#4" y="2.171"/><use xlink:href="#8" y="4.342"/><use xlink:href="#9" y="6.513"/><use xlink:href="#11" y="8.684"/><use xlink:href="#8" y="10.855"/><use xlink:href="#14" y="13.026"/><use xlink:href="#3" y="15.197"/></svg><svg x="4080"><use xlink:href="#a"/><use xlink:href="#b" x="-.004" y="17.343"/><use xlink:href="#3"/><use xlink:href="#4" y="2.171"/><use xlink:href="#8" y="4.342"/><use xlink:href="#9" y="6.513"/><use xlink:href="#11" y="8.684"/><use xlink:href="#8" y="10.855"/><use xlink:href="#14" y="13.026"/><use xlink:href="#3" y="15.197"/></svg><svg x="4160"><use xlink:href="#a"/><use xlink:href="#b" x="-.004" y="17.343"/><use xlink:href="#4"/><use xlink:href="#8" y="2.171"/><use xlink:href="#9" y="4.342"/><use xlink:href="#11" y="6.513"/><use xlink:href="#8" y="8.684"/><use xlink:href="#14" y="10.855"/><use xlink:href="#3" y="13.026"/><use xlink:href="#15" y="15.197"/></svg><svg x="4240"><use xlink:href="#a"/><use xlink:href="#b" x="1.996" y="17.343"/><use xlink:href="#4"/><use xlink:href="#8" y="2.171"/><use xlink:href="#9" y="4.342"/><use xlink:href="#11" y="6.513"/><use xlink:href="#8" y="8.684"/><use xlink:href="#14" y="10.855"/><use xlink:href="#3" y="13.026"/><use xlink:href="#15" y="15.197"/><use xlink:href="#1" y="17.368"/></svg><svg x="4320"><use xlink:href="#a"/><use xlink:href="#b" x="-.004" y="17.343"/><use xlink:href="#8"/><use xlink:href="#9" y="2.171"/><use xlink:href="#11" y="4.342"/><use xlink:href="#8" y="6.513"/><use xlink:href="#14" y="8.684"/><use xlink:href="#3" y="10.855"/><use xlink:href="#15" y="13.026"/><use xlink:href="#1" y="15.197"/></svg></svg></g></g></svg></svg>