<svg xmlns="http://www.w3.org/2000/svg" xmlns:xlink="http://www.w3.org/1999/xlink" width="820" height="193.68"><rect width="820" height="193.68" rx="0" ry="0" class="a"/><svg height="173.68" viewBox="0 0 80 17.368" width="800" x="10" xmlns="http://www.w3.org/2000/svg" xmlns:xlink="http://www.w3.org/1999/xlink" y="10"><style>@keyframes f{0%{transform:translateX(0)}2.4%{transform:translateX(-80px)}14.7%{transform:translateX(-160px)}16.9%{transform:translateX(-240px)}21.3%{transform:translateX(-320px)}22.8%{transform:translateX(-400px)}29.4%{transform:translateX(-480px)}33.8%{transform:translateX(-560px)}42.6%{transform:translateX(-640px)}42.7%{transform:translateX(-880px)}71.9%{transform:translateX(-960px)}to{transform:translateX(-1040px)}}.a{fill:#282d35}.c{fill:#b9c0cb;white-space:pre}</style><g font-family="Monaco,Consolas,Menlo,'Bitstream Vera Sans Mono','Powerline Symbols',monospace" font-size="1.67"><defs><symbol id="1"><text y="1.67" class="c">$</text></symbol><symbol id="2"><text y="1.67" class="c">$</text><text x="2.004" y="1.67" class="c">cat</text></symbol><symbol id="3"><text y="1.67" class="c">$</text><text x="2.004" y="1.67" class="c">cat</text><text x="6.012" y="1.67" class="c">config.yml</text></symbol><symbol id="4"><text y="1.67" class="c">---</text></symbol><symbol id="5"><text y="1.67" class="c">threshold:</text><text x="11.022" y="1.67" class="c">128</text></symbol><symbol id="6"><text y="1.67" class="c">$</text><text x="2.004" y="1.67" class="c">open</text><text x="7.014" y="1.67" class="c">frame-42.png</text></symbol><symbol id="a"><path fill="transparent" d="M0 0h80v9H0z"/></symbol><symbol id="b"><path fill="#6f7683" d="M0 0h1.102v2.171H0z"/></symbol></defs><path class="a" d="M0 0h80v17.368H0z"/><g style="animation-duration:3.273875999999993s;animation-iteration-count:infinite;animation-name:f;animation-timing-function:steps(1,end)"><svg width="1120"><svg><use xlink:href="#a"/><use xlink:href="#b" x="-.004"/></svg><svg x="80"><use xlink:href="#a"/><use xlink:href="#b" x="1.996"/><use xlink:href="#1"/></svg><svg x="160"><use xlink:href="#a"/><use xlink:href="#b" x="2.996"/><text y="1.67" class="c">$</text><text x="2.004" y="1.67" class="c">c</text></svg><svg x="240"><use xlink:href="#a"/><use xlink:href="#b" x="3.996"/><text y="1.67" class="c">$</text><text x="2.004" y="1.67" class="c">ca</text></svg><svg x="320"><use xlink:href="#a"/><use xlink:href="#b" x="4.996"/><use xlink:href="#2"/></svg><svg x="400"><use xlink:href="#a"/><use xlink:href="#b" x="5.996"/><use xlink:href="#2"/></svg><svg x="480"><use xlink:href="#a"/><use xlink:href="#b" x="6.996"/><text y="1.67" class="c">$</text><text x="2.004" y="1.67" class="c">cat</text><text x="6.012" y="1.67" class="c">c</text></svg><svg x="560"><use xlink:href="#a"/><use xlink:href="#b" x="16.996"/><use xlink:href="#3"/></svg><svg x="640"><use xlink:href="#a"/><use xlink:href="#b" x="-.004" y="2.146"/><use xlink:href="#3"/></svg><svg x="720"><use xlink:href="#a"/><use xlink:href="#b" x="-.004" y="6.488"/><use xlink:href="#3"/><use xlink:href="#4" y="2.171"/><use xlink:href="#5" y="4.342"/></svg><svg x="800"><use xlink:href="#a"/><use xlink:href="#b" x="1.996" y="6.488"/><use xlink:href="#3"/><use xlink:href="#4" y="2.171"/><use xlink:href="#5" y="4.342"/><use xlink:href="#1" y="6.513"/></svg><svg x="880"><use xlink:href="#a"/><use xlink:href="#b" x="1.996" y="6.488"/><use xlink:href="#3"/><use xlink:href="#4" y="2.171"/><use xlink:href="#5" y="4.342"/><use xlink:href="#1" y="6.513"/></svg><svg x="960"><use xlink:href="#a"/><use xlink:href="#b" x="18.996" y="6.488"/><use xlink:href="#3"/><use xlink:href="#4" y="2.171"/><use xlink:href="#5" y="4.342"/><use xlink:href="#6" y="6.513"/></svg><svg x="1040"><use xlink:href="#a"/><use xlink:href="#b" x="-.004" y="8.659"/><use xlink:href="#3"/><use xlink:href="#4" y="2.171"/><use xlink:href="#5" y="4.342"/><use xlink:href="#6" y="6.513"/></svg></svg></g></g></svg></svg>