<svg xmlns="http://www.w3.org/2000/svg" xmlns:xlink="http://www.w3.org/1999/xlink" width="820" height="193.68"><rect width="820" height="193.68" rx="0" ry="0" class="a"/><svg height="173.68" viewBox="0 0 80 17.368" width="800" x="10" xmlns="http://www.w3.org/2000/svg" xmlns:xlink="http://www.w3.org/1999/xlink" y="10"><style>@keyframes f{0%{transform:translateX(0)}1.47%{transform:translateX(-80px)}6.72%{transform:translateX(-160px)}7.4%{transform:translateX(-240px)}7.43%{transform:translateX(-320px)}11.34%{transform:translateX(-400px)}11.57%{transform:translateX(-480px)}14.12%{transform:translateX(-560px)}14.91%{transform:translateX(-640px)}15.72%{transform:translateX(-720px)}18.1%{transform:translateX(-800px)}19.15%{transform:translateX(-880px)}24.77%{transform:translateX(-960px)}25.49%{transform:translateX(-1040px)}25.91%{transform:translateX(-1120px)}28.52%{transform:translateX(-1200px)}28.82%{transform:translateX(-1280px)}29.73%{transform:translateX(-1360px)}36.37%{transform:translateX(-1600px)}37.58%{transform:translateX(-1680px)}38.03%{transform:translateX(-1760px)}38.39%{transform:translateX(-1840px)}39.29%{transform:translateX(-1920px)}40.27%{transform:translateX(-2000px)}41.36%{transform:translateX(-2080px)}41.41%{transform:translateX(-2160px)}41.42%{transform:translateX(-2320px)}44.06%{transform:translateX(-2400px)}44.58%{transform:translateX(-2480px)}44.88%{transform:translateX(-2560px)}47.51%{transform:translateX(-2640px)}53.14%{transform:translateX(-2720px)}53.47%{transform:translateX(-2800px)}54.34%{transform:translateX(-2880px)}56.55%{transform:translateX(-3040px)}59.81%{transform:translateX(-3120px)}60.34%{transform:translateX(-3200px)}60.78%{transform:translateX(-3280px)}61.42%{transform:translateX(-3360px)}62.17%{transform:translateX(-3440px)}64.28%{transform:translateX(-3520px)}64.3%{transform:translateX(-3680px)}67.05%{transform:translateX(-3760px)}67.54%{transform:translateX(-3840px)}70.05%{transform:translateX(-3920px)}71.21%{transform:translateX(-4000px)}71.7%{transform:translateX(-4080px)}78.19%{transform:translateX(-4160px)}78.98%{transform:translateX(-4240px)}79.32%{transform:translateX(-4320px)}79.88%{transform:translateX(-4400px)}80.48%{transform:translateX(-4480px)}81.38%{transform:translateX(-4560px)}84.49%{transform:translateX(-4640px)}85.06%{transform:translateX(-4720px)}87.12%{transform:translateX(-4800px)}91.17%{transform:translateX(-4880px)}92.18%{transform:translateX(-4960px)}93.58%{transform:translateX(-5040px)}to{transform:translateX(-5120px)}}.a{fill:#282d35}.c,.h{fill:#b9c0cb;white-space:pre}.h{font-weight:700}</style><g font-family="Monaco,Consolas,Menlo,'Bitstream Vera Sans Mono','Powerline Symbols',monospace" font-size="1.67"><defs><symbol id="1"><text y="1.67" class="c">$</text></symbol><symbol id="2"><text y="1.67" class="c">$</text><text x="2.004" y="1.67" class="c">ls</text></symbol><symbol id="3"><text y="1.67" class="c">mountpoint</text><text x="16.032" y="1.67" class="c">sample.mp4</text></symbol><symbol id="4"><text y="1.67" class="c">$</text><text x="2.004" y="1.67" class="c">cd</text></symbol><symbol id="5"><text y="1.67" class="c">$</text><text x="2.004" y="1.67" class="c">cd</text><text x="5.01" y="1.67" class="c">mountpoint/by-frame/frame-42</text></symbol><symbol id="6"><text y="1.67" class="c">$</text><text x="2.004" y="1.67" class="c">l</text></symbol><symbol id="7"><text y="1.67" class="c">$</text><text x="2.004" y="1.67" class="c">ls</text><text x="5.01" y="1.67" class="c">-</text></symbol><symbol id="8"><text y="1.67" class="c">$</text><text x="2.004" y="1.67" class="c">ls</text><text x="5.01" y="1.67" class="c">-1</text></symbol><symbol id="9"><text y="1.67" class="c">black-and-white</text></symbol><symbol id="10"><text y="1.67" class="c">greyscale</text></symbol><symbol id="11"><text y="1.67" class="c">original</text></symbol><symbol id="12"><text y="1.67" class="c">$</text><text x="2.004" y="1.67" class="c">cd</text><text x="5.01" y="1.67" class="c">greyscale</text></symbol><symbol id="13"><text y="1.67" class="c">config.yml</text></symbol><symbol id="14"><text y="1.67" class="c">initialise.sh</text></symbol><symbol id="15"><text y="1.67" class="c">manifest.csv</text></symbol><symbol id="16"><text y="1.67" class="c">$</text><text x="2.004" y="1.67" class="c">open</text></symbol><symbol id="17"><text y="1.67" class="c">$</text><text x="2.004" y="1.67" class="c">open</text><text x="7.014" y="1.67" class="c">frame-42.jpg</text></symbol><symbol id="a"><path fill="transparent" d="M0 0h80v9H0z"/></symbol><symbol id="b"><path fill="#6f7683" d="M0 0h1.102v2.171H0z"/></symbol></defs><path class="a" d="M0 0h80v17.368H0z"/><g style="animation-duration:21.32583999999997s;animation-iteration-count:infinite;animation-name:f;animation-timing-function:steps(1,end)"><svg width="5200"><svg><use xlink:href="#a"/><use xlink:href="#b" x="-.004"/></svg><svg x="80"><use xlink:href="#a"/><use xlink:href="#b" x="1.996"/><use xlink:href="#1"/></svg><svg x="160"><use xlink:href="#a"/><use xlink:href="#b" x="3.996"/><use xlink:href="#2"/></svg><svg x="240"><use xlink:href="#a"/><use xlink:href="#b" x="-.004" y="2.146"/><use xlink:href="#2"/></svg><svg x="320"><use xlink:href="#a"/><use xlink:href="#b" x="1.996" y="4.317"/><use xlink:href="#2"/><use xlink:href="#3" y="2.171"/><use xlink:href="#1" y="4.342"/></svg><svg x="400"><use xlink:href="#a"/><use xlink:href="#b" x="3.996" y="4.317"/><use xlink:href="#2"/><use xlink:href="#3" y="2.171"/><use xlink:href="#4" y="4.342"/></svg><svg x="480"><use xlink:href="#a"/><use xlink:href="#b" x="4.996" y="4.317"/><use xlink:href="#2"/><use xlink:href="#3" y="2.171"/><use xlink:href="#4" y="4.342"/></svg><svg x="560"><use xlink:href="#a"/><use xlink:href="#b" x="5.996" y="4.317"/><use xlink:href="#2"/><use xlink:href="#3" y="2.171"/><text y="6.012" class="c">$</text><text x="2.004" y="6.012" class="c">cd</text><text x="5.01" y="6.012" class="c">m</text></svg><svg x="640"><use xlink:href="#a"/><use xlink:href="#b" x="6.996" y="4.317"/><use xlink:href="#2"/><use xlink:href="#3" y="2.171"/><text y="6.012" class="c">$</text><text x="2.004" y="6.012" class="c">cd</text><text x="5.01" y="6.012" class="c">mo</text></svg><svg x="720"><use xlink:href="#a"/><use xlink:href="#b" x="15.996" y="4.317"/><use xlink:href="#2"/><use xlink:href="#3" y="2.171"/><text y="6.012" class="c">$</text><text x="2.004" y="6.012" class="c">cd</text><text x="5.01" y="6.012" class="c">mountpoint</text><text x="15.03" y="6.012" class="h">/</text></svg><svg x="800"><use xlink:href="#a"/><use xlink:href="#b" x="16.996" y="4.317"/><use xlink:href="#2"/><use xlink:href="#3" y="2.171"/><text y="6.012" class="c">$</text><text x="2.004" y="6.012" class="c">cd</text><text x="5.01" y="6.012" class="c">mountpoint/b</text></svg><svg x="880"><use xlink:href="#a"/><use xlink:href="#b" x="24.996" y="4.317"/><use xlink:href="#2"/><use xlink:href="#3" y="2.171"/><text y="6.012" class="c">$</text><text x="2.004" y="6.012" class="c">cd</text><text x="5.01" y="6.012" class="c">mountpoint/by-frame</text><text x="24.048" y="6.012" class="h">/</text></svg><svg x="960"><use xlink:href="#a"/><use xlink:href="#b" x="25.996" y="4.317"/><use xlink:href="#2"/><use xlink:href="#3" y="2.171"/><text y="6.012" class="c">$</text><text x="2.004" y="6.012" class="c">cd</text><text x="5.01" y="6.012" class="c">mountpoint/by-frame/f</text></svg><svg x="1040"><use xlink:href="#a"/><use xlink:href="#b" x="26.996" y="4.317"/><use xlink:href="#2"/><use xlink:href="#3" y="2.171"/><text y="6.012" class="c">$</text><text x="2.004" y="6.012" class="c">cd</text><text x="5.01" y="6.012" class="c">mountpoint/by-frame/fr</text></svg><svg x="1120"><use xlink:href="#a"/><use xlink:href="#b" x="30.996" y="4.317"/><use xlink:href="#2"/><use xlink:href="#3" y="2.171"/><text y="6.012" class="c">$</text><text x="2.004" y="6.012" class="c">cd</text><text x="5.01" y="6.012" class="c">mountpoint/by-frame/frame-</text></svg><svg x="1200"><use xlink:href="#a"/><use xlink:href="#b" x="31.996" y="4.317"/><use xlink:href="#2"/><use xlink:href="#3" y="2.171"/><text y="6.012" class="c">$</text><text x="2.004" y="6.012" class="c">cd</text><text x="5.01" y="6.012" class="c">mountpoint/by-frame/frame-4</text></svg><svg x="1280"><use xlink:href="#a"/><use xlink:href="#b" x="32.996" y="4.317"/><use xlink:href="#2"/><use xlink:href="#3" y="2.171"/><use xlink:href="#5" y="4.342"/></svg><svg x="1360"><use xlink:href="#a"/><use xlink:href="#b" x="33.996" y="4.317"/><use xlink:href="#2"/><use xlink:href="#3" y="2.171"/><text y="6.012" class="c">$</text><text x="2.004" y="6.012" class="c">cd</text><text x="5.01" y="6.012" class="c">mountpoint/by-frame/frame-42</text><text x="33.066" y="6.012" class="h">/</text></svg><svg x="1440"><use xlink:href="#a"/><use xlink:href="#b" x="32.996" y="4.317"/><use xlink:href="#2"/><use xlink:href="#3" y="2.171"/><use xlink:href="#5" y="4.342"/></svg><svg x="1520"><use xlink:href="#a"/><use xlink:href="#b" x="-.004" y="6.488"/><use xlink:href="#2"/><use xlink:href="#3" y="2.171"/><use xlink:href="#5" y="4.342"/></svg><svg x="1600"><use xlink:href="#a"/><use xlink:href="#b" x="1.996" y="6.488"/><use xlink:href="#2"/><use xlink:href="#3" y="2.171"/><use xlink:href="#5" y="4.342"/><use xlink:href="#1" y="6.513"/></svg><svg x="1680"><use xlink:href="#a"/><use xlink:href="#b" x="2.996" y="6.488"/><use xlink:href="#2"/><use xlink:href="#3" y="2.171"/><use xlink:href="#5" y="4.342"/><use xlink:href="#6" y="6.513"/></svg><svg x="1760"><use xlink:href="#a"/><use xlink:href="#b" x="3.996" y="6.488"/><use xlink:href="#2"/><use xlink:href="#3" y="2.171"/><use xlink:href="#5" y="4.342"/><use xlink:href="#2" y="6.513"/></svg><svg x="1840"><use xlink:href="#a"/><use xlink:href="#b" x="4.996" y="6.488"/><use xlink:href="#2"/><use xlink:href="#3" y="2.171"/><use xlink:href="#5" y="4.342"/><use xlink:href="#2" y="6.513"/></svg><svg x="1920"><use xlink:href="#a"/><use xlink:href="#b" x="5.996" y="6.488"/><use xlink:href="#2"/><use xlink:href="#3" y="2.171"/><use xlink:href="#5" y="4.342"/><use xlink:href="#7" y="6.513"/></svg><svg x="2000"><use xlink:href="#a"/><use xlink:href="#b" x="6.996" y="6.488"/><use xlink:href="#2"/><use xlink:href="#3" y="2.171"/><use xlink:href="#5" y="4.342"/><use xlink:href="#8" y="6.513"/></svg><svg x="2080"><use xlink:href="#a"/><use xlink:href="#b" x="-.004" y="8.659"/><use xlink:href="#2"/><use xlink:href="#3" y="2.171"/><use xlink:href="#5" y="4.342"/><use xlink:href="#8" y="6.513"/></svg><svg x="2160"><use xlink:href="#a"/><use xlink:href="#b" x="-.004" y="15.172"/><use xlink:href="#2"/><use xlink:href="#3" y="2.171"/><use xlink:href="#5" y="4.342"/><use xlink:href="#8" y="6.513"/><use xlink:href="#9" y="8.684"/><use xlink:href="#10" y="10.855"/><use xlink:href="#11" y="13.026"/></svg><svg x="2240"><use xlink:href="#a"/><use xlink:href="#b" x="1.996" y="15.172"/><use xlink:href="#2"/><use xlink:href="#3" y="2.171"/><use xlink:href="#5" y="4.342"/><use xlink:href="#8" y="6.513"/><use xlink:href="#9" y="8.684"/><use xlink:href="#10" y="10.855"/><use xlink:href="#11" y="13.026"/><use xlink:href="#1" y="15.197"/></svg><svg x="2320"><use xlink:href="#a"/><use xlink:href="#b" x="1.996" y="15.172"/><use xlink:href="#2"/><use xlink:href="#3" y="2.171"/><use xlink:href="#5" y="4.342"/><use xlink:href="#8" y="6.513"/><use xlink:href="#9" y="8.684"/><use xlink:href="#10" y="10.855"/><use xlink:href="#11" y="13.026"/><use xlink:href="#1" y="15.197"/></svg><svg x="2400"><use xlink:href="#a"/><use xlink:href="#b" x="2.996" y="15.172"/><use xlink:href="#2"/><use xlink:href="#3" y="2.171"/><use xlink:href="#5" y="4.342"/><use xlink:href="#8" y="6.513"/><use xlink:href="#9" y="8.684"/><use xlink:href="#10" y="10.855"/><use xlink:href="#11" y="13.026"/><text y="16.867" class="c">$</text><text x="2.004" y="16.867" class="c">c</text></svg><svg x="2480"><use xlink:href="#a"/><use xlink:href="#b" x="3.996" y="15.172"/><use xlink:href="#2"/><use xlink:href="#3" y="2.171"/><use xlink:href="#5" y="4.342"/><use xlink:href="#8" y="6.513"/><use xlink:href="#9" y="8.684"/><use xlink:href="#10" y="10.855"/><use xlink:href="#11" y="13.026"/><use xlink:href="#4" y="15.197"/></svg><svg x="2560"><use xlink:href="#a"/><use xlink:href="#b" x="4.996" y="15.172"/><use xlink:href="#2"/><use xlink:href="#3" y="2.171"/><use xlink:href="#5" y="4.342"/><use xlink:href="#8" y="6.513"/><use xlink:href="#9" y="8.684"/><use xlink:href="#10" y="10.855"/><use xlink:href="#11" y="13.026"/><use xlink:href="#4" y="15.197"/></svg><svg x="2640"><use xlink:href="#a"/><use xlink:href="#b" x="5.996" y="15.172"/><use xlink:href="#2"/><use xlink:href="#3" y="2.171"/><use xlink:href="#5" y="4.342"/><use xlink:href="#8" y="6.513"/><use xlink:href="#9" y="8.684"/><use xlink:href="#10" y="10.855"/><use xlink:href="#11" y="13.026"/><text y="16.867" class="c">$</text><text x="2.004" y="16.867" class="c">cd</text><text x="5.01" y="16.867" class="c">g</text></svg><svg x="2720"><use xlink:href="#a"/><use xlink:href="#b" x="6.996" y="15.172"/><use xlink:href="#2"/><use xlink:href="#3" y="2.171"/><use xlink:href="#5" y="4.342"/><use xlink:href="#8" y="6.513"/><use xlink:href="#9" y="8.684"/><use xlink:href="#10" y="10.855"/><use xlink:href="#11" y="13.026"/><text y="16.867" class="c">$</text><text x="2.004" y="16.867" class="c">cd</text><text x="5.01" y="16.867" class="c">gr</text></svg><svg x="2800"><use xlink:href="#a"/><use xlink:href="#b" x="7.996" y="15.172"/><use xlink:href="#2"/><use xlink:href="#3" y="2.171"/><use xlink:href="#5" y="4.342"/><use xlink:href="#8" y="6.513"/><use xlink:href="#9" y="8.684"/><use xlink:href="#10" y="10.855"/><use xlink:href="#11" y="13.026"/><text y="16.867" class="c">$</text><text x="2.004" y="16.867" class="c">cd</text><text x="5.01" y="16.867" class="c">gre</text></svg><svg x="2880"><use xlink:href="#a"/><use xlink:href="#b" x="14.996" y="15.172"/><use xlink:href="#2"/><use xlink:href="#3" y="2.171"/><use xlink:href="#5" y="4.342"/><use xlink:href="#8" y="6.513"/><use xlink:href="#9" y="8.684"/><use xlink:href="#10" y="10.855"/><use xlink:href="#11" y="13.026"/><text y="16.867" class="c">$</text><text x="2.004" y="16.867" class="c">cd</text><text x="5.01" y="16.867" class="c">greyscale</text><text x="14.028" y="16.867" class="h">/</text></svg><svg x="2960"><use xlink:href="#a"/><use xlink:href="#b" x="-.004" y="17.343"/><use xlink:href="#2"/><use xlink:href="#3" y="2.171"/><use xlink:href="#5" y="4.342"/><use xlink:href="#8" y="6.513"/><use xlink:href="#9" y="8.684"/><use xlink:href="#10" y="10.855"/><use xlink:href="#11" y="13.026"/><use xlink:href="#12" y="15.197"/></svg><svg x="3040"><use xlink:href="#a"/><use xlink:href="#b" x="1.996" y="17.343"/><use xlink:href="#2"/><use xlink:href="#3" y="2.171"/><use xlink:href="#5" y="4.342"/><use xlink:href="#8" y="6.513"/><use xlink:href="#9" y="8.684"/><use xlink:href="#10" y="10.855"/><use xlink:href="#11" y="13.026"/><use xlink:href="#12" y="15.197"/><use xlink:href="#1" y="17.368"/></svg><svg x="3120"><use xlink:href="#a"/><use xlink:href="#b" x="2.996" y="17.343"/><use xlink:href="#2"/><use xlink:href="#3" y="2.171"/><use xlink:href="#5" y="4.342"/><use xlink:href="#8" y="6.513"/><use xlink:href="#9" y="8.684"/><use xlink:href="#10" y="10.855"/><use xlink:href="#11" y="13.026"/><use xlink:href="#12" y="15.197"/><use xlink:href="#6" y="17.368"/></svg><svg x="3200"><use xlink:href="#a"/><use xlink:href="#b" x="3.996" y="17.343"/><use xlink:href="#2"/><use xlink:href="#3" y="2.171"/><use xlink:href="#5" y="4.342"/><use xlink:href="#8" y="6.513"/><use xlink:href="#9" y="8.684"/><use xlink:href="#10" y="10.855"/><use xlink:href="#11" y="13.026"/><use xlink:href="#12" y="15.197"/><use xlink:href="#2" y="17.368"/></svg><svg x="3280"><use xlink:href="#a"/><use xlink:href="#b" x="4.996" y="17.343"/><use xlink:href="#2"/><use xlink:href="#3" y="2.171"/><use xlink:href="#5" y="4.342"/><use xlink:href="#8" y="6.513"/><use xlink:href="#9" y="8.684"/><use xlink:href="#10" y="10.855"/><use xlink:href="#11" y="13.026"/><use xlink:href="#12" y="15.197"/><use xlink:href="#2" y="17.368"/></svg><svg x="3360"><use xlink:href="#a"/><use xlink:href="#b" x="5.996" y="17.343"/><use xlink:href="#2"/><use xlink:href="#3" y="2.171"/><use xlink:href="#5" y="4.342"/><use xlink:href="#8" y="6.513"/><use xlink:href="#9" y="8.684"/><use xlink:href="#10" y="10.855"/><use xlink:href="#11" y="13.026"/><use xlink:href="#12" y="15.197"/><use xlink:href="#7" y="17.368"/></svg><svg x="3440"><use xlink:href="#a"/><use xlink:href="#b" x="6.996" y="17.343"/><use xlink:href="#2"/><use xlink:href="#3" y="2.171"/><use xlink:href="#5" y="4.342"/><use xlink:href="#8" y="6.513"/><use xlink:href="#9" y="8.684"/><use xlink:href="#10" y="10.855"/><use xlink:href="#11" y="13.026"/><use xlink:href="#12" y="15.197"/><use xlink:href="#8" y="17.368"/></svg><svg x="3520"><use xlink:href="#a"/><use xlink:href="#b" x="-.004" y="17.343"/><use xlink:href="#3"/><use xlink:href="#5" y="2.171"/><use xlink:href="#8" y="4.342"/><use xlink:href="#9" y="6.513"/><use xlink:href="#10" y="8.684"/><use xlink:href="#11" y="10.855"/><use xlink:href="#12" y="13.026"/><use xlink:href="#8" y="15.197"/></svg><svg x="3600"><use xlink:href="#a"/><use xlink:href="#b" x="-.004" y="17.343"/><use xlink:href="#9"/><use xlink:href="#10" y="2.171"/><use xlink:href="#11" y="4.342"/><use xlink:href="#12" y="6.513"/><use xlink:href="#8" y="8.684"/><use xlink:href="#13" y="10.855"/><use xlink:href="#14" y="13.026"/><use xlink:href="#15" y="15.197"/></svg><svg x="3680"><use xlink:href="#a"/><use xlink:href="#b" x="1.996" y="17.343"/><use xlink:href="#9"/><use xlink:href="#10" y="2.171"/><use xlink:href="#11" y="4.342"/><use xlink:href="#12" y="6.513"/><use xlink:href="#8" y="8.684"/><use xlink:href="#13" y="10.855"/><use xlink:href="#14" y="13.026"/><use xlink:href="#15" y="15.197"/><use xlink:href="#1" y="17.368"/></svg><svg x="3760"><use xlink:href="#a"/><use xlink:href="#b" x="2.996" y="17.343"/><use xlink:href="#9"/><use xlink:href="#10" y="2.171"/><use xlink:href="#11" y="4.342"/><use xlink:href="#12" y="6.513"/><use xlink:href="#8" y="8.684"/><use xlink:href="#13" y="10.855"/><use xlink:href="#14" y="13.026"/><use xlink:href="#15" y="15.197"/><text y="19.038" class="c">$</text><text x="2.004" y="19.038" class="c">o</text></svg><svg x="3840"><use xlink:href="#a"/><use xlink:href="#b" x="3.996" y="17.343"/><use xlink:href="#9"/><use xlink:href="#10" y="2.171"/><use xlink:href="#11" y="4.342"/><use xlink:href="#12" y="6.513"/><use xlink:href="#8" y="8.684"/><use xlink:href="#13" y="10.855"/><use xlink:href="#14" y="13.026"/><use xlink:href="#15" y="15.197"/><text y="19.038" class="c">$</text><text x="2.004" y="19.038" class="c">op</text></svg><svg x="3920"><use xlink:href="#a"/><use xlink:href="#b" x="4.996" y="17.343"/><use xlink:href="#9"/><use xlink:href="#10" y="2.171"/><use xlink:href="#11" y="4.342"/><use xlink:href="#12" y="6.513"/><use xlink:href="#8" y="8.684"/><use xlink:href="#13" y="10.855"/><use xlink:href="#14" y="13.026"/><use xlink:href="#15" y="15.197"/><text y="19.038" class="c">$</text><text x="2.004" y="19.038" class="c">ope</text></svg><svg x="4000"><use xlink:href="#a"/><use xlink:href="#b" x="5.996" y="17.343"/><use xlink:href="#9"/><use xlink:href="#10" y="2.171"/><use xlink:href="#11" y="4.342"/><use xlink:href="#12" y="6.513"/><use xlink:href="#8" y="8.684"/><use xlink:href="#13" y="10.855"/><use xlink:href="#14" y="13.026"/><use xlink:href="#15" y="15.197"/><use xlink:href="#16" y="17.368"/></svg><svg x="4080"><use xlink:href="#a"/><use xlink:href="#b" x="6.996" y="17.343"/><use xlink:href="#9"/><use xlink:href="#10" y="2.171"/><use xlink:href="#11" y="4.342"/><use xlink:href="#12" y="6.513"/><use xlink:href="#8" y="8.684"/><use xlink:href="#13" y="10.855"/><use xlink:href="#14" y="13.026"/><use xlink:href="#15" y="15.197"/><use xlink:href="#16" y="17.368"/></svg><svg x="4160"><use xlink:href="#a"/><use xlink:href="#b" x="7.996" y="17.343"/><use xlink:href="#9"/><use xlink:href="#10" y="2.171"/><use xlink:href="#11" y="4.342"/><use xlink:href="#12" y="6.513"/><use xlink:href="#8" y="8.684"/><use xlink:href="#13" y="10.855"/><use xlink:href="#14" y="13.026"/><use xlink:href="#15" y="15.197"/><text y="19.038" class="c">$</text><text x="2.004" y="19.038" class="c">open</text><text x="7.014" y="19.038" class="c">f</text></svg><svg x="4240"><use xlink:href="#a"/><use xlink:href="#b" x="8.996" y="17.343"/><use xlink:href="#9"/><use xlink:href="#10" y="2.171"/><use xlink:href="#11" y="4.342"/><use xlink:href="#12" y="6.513"/><use xlink:href="#8" y="8.684"/><use xlink:href="#13" y="10.855"/><use xlink:href="#14" y="13.026"/><use xlink:href="#15" y="15.197"/><text y="19.038" class="c">$</text><text x="2.004" y="19.038" class="c">open</text><text x="7.014" y="19.038" class="c">fr</text></svg><svg x="4320"><use xlink:href="#a"/><use xlink:href="#b" x="9.996" y="17.343"/><use xlink:href="#9"/><use xlink:href="#10" y="2.171"/><use xlink:href="#11" y="4.342"/><use xlink:href="#12" y="6.513"/><use xlink:href="#8" y="8.684"/><use xlink:href="#13" y="10.855"/><use xlink:href="#14" y="13.026"/><use xlink:href="#15" y="15.197"/><text y="19.038" class="c">$</text><text x="2.004" y="19.038" class="c">open</text><text x="7.014" y="19.038" class="c">fra</text></svg><svg x="4400"><use xlink:href="#a"/><use xlink:href="#b" x="10.996" y="17.343"/><use xlink:href="#9"/><use xlink:href="#10" y="2.171"/><use xlink:href="#11" y="4.342"/><use xlink:href="#12" y="6.513"/><use xlink:href="#8" y="8.684"/><use xlink:href="#13" y="10.855"/><use xlink:href="#14" y="13.026"/><use xlink:href="#15" y="15.197"/><text y="19.038" class="c">$</text><text x="2.004" y="19.038" class="c">open</text><text x="7.014" y="19.038" class="c">fram</text></svg><svg x="4480"><use xlink:href="#a"/><use xlink:href="#b" x="11.996" y="17.343"/><use xlink:href="#9"/><use xlink:href="#10" y="2.171"/><use xlink:href="#11" y="4.342"/><use xlink:href="#12" y="6.513"/><use xlink:href="#8" y="8.684"/><use xlink:href="#13" y="10.855"/><use xlink:href="#14" y="13.026"/><use xlink:href="#15" y="15.197"/><text y="19.038" class="c">$</text><text x="2.004" y="19.038" class="c">open</text><text x="7.014" y="19.038" class="c">frame</text></svg><svg x="4560"><use xlink:href="#a"/><use xlink:href="#b" x="12.996" y="17.343"/><use xlink:href="#9"/><use xlink:href="#10" y="2.171"/><use xlink:href="#11" y="4.342"/><use xlink:href="#12" y="6.513"/><use xlink:href="#8" y="8.684"/><use xlink:href="#13" y="10.855"/><use xlink:href="#14" y="13.026"/><use xlink:href="#15" y="15.197"/><text y="19.038" class="c">$</text><text x="2.004" y="19.038" class="c">open</text><text x="7.014" y="19.038" class="c">frame-</text></svg><svg x="4640"><use xlink:href="#a"/><use xlink:href="#b" x="13.996" y="17.343"/><use xlink:href="#9"/><use xlink:href="#10" y="2.171"/><use xlink:href="#11" y="4.342"/><use xlink:href="#12" y="6.513"/><use xlink:href="#8" y="8.684"/><use xlink:href="#13" y="10.855"/><use xlink:href="#14" y="13.026"/><use xlink:href="#15" y="15.197"/><text y="19.038" class="c">$</text><text x="2.004" y="19.038" class="c">open</text><text x="7.014" y="19.038" class="c">frame-4</text></svg><svg x="4720"><use xlink:href="#a"/><use xlink:href="#b" x="14.996" y="17.343"/><use xlink:href="#9"/><use xlink:href="#10" y="2.171"/><use xlink:href="#11" y="4.342"/><use xlink:href="#12" y="6.513"/><use xlink:href="#8" y="8.684"/><use xlink:href="#13" y="10.855"/><use xlink:href="#14" y="13.026"/><use xlink:href="#15" y="15.197"/><text y="19.038" class="c">$</text><text x="2.004" y="19.038" class="c">open</text><text x="7.014" y="19.038" class="c">frame-42</text></svg><svg x="4800"><use xlink:href="#a"/><use xlink:href="#b" x="15.996" y="17.343"/><use xlink:href="#9"/><use xlink:href="#10" y="2.171"/><use xlink:href="#11" y="4.342"/><use xlink:href="#12" y="6.513"/><use xlink:href="#8" y="8.684"/><use xlink:href="#13" y="10.855"/><use xlink:href="#14" y="13.026"/><use xlink:href="#15" y="15.197"/><text y="19.038" class="c">$</text><text x="2.004" y="19.038" class="c">open</text><text x="7.014" y="19.038" class="c">frame-42.</text></svg><svg x="4880"><use xlink:href="#a"/><use xlink:href="#b" x="16.996" y="17.343"/><use xlink:href="#9"/><use xlink:href="#10" y="2.171"/><use xlink:href="#11" y="4.342"/><use xlink:href="#12" y="6.513"/><use xlink:href="#8" y="8.684"/><use xlink:href="#13" y="10.855"/><use xlink:href="#14" y="13.026"/><use xlink:href="#15" y="15.197"/><text y="19.038" class="c">$</text><text x="2.004" y="19.038" class="c">open</text><text x="7.014" y="19.038" class="c">frame-42.j</text></svg><svg x="4960"><use xlink:href="#a"/><use xlink:href="#b" x="17.996" y="17.343"/><use xlink:href="#9"/><use xlink:href="#10" y="2.171"/><use xlink:href="#11" y="4.342"/><use xlink:href="#12" y="6.513"/><use xlink:href="#8" y="8.684"/><use xlink:href="#13" y="10.855"/><use xlink:href="#14" y="13.026"/><use xlink:href="#15" y="15.197"/><text y="19.038" class="c">$</text><text x="2.004" y="19.038" class="c">open</text><text x="7.014" y="19.038" class="c">frame-42.jp</text></svg><svg x="5040"><use xlink:href="#a"/><use xlink:href="#b" x="18.996" y="17.343"/><use xlink:href="#9"/><use xlink:href="#10" y="2.171"/><use xlink:href="#11" y="4.342"/><use xlink:href="#12" y="6.513"/><use xlink:href="#8" y="8.684"/><use xlink:href="#13" y="10.855"/><use xlink:href="#14" y="13.026"/><use xlink:href="#15" y="15.197"/><use xlink:href="#17" y="17.368"/></svg><svg x="5120"><use xlink:href="#a"/><use xlink:href="#b" x="-.004" y="17.343"/><use xlink:href="#10"/><use xlink:href="#11" y="2.171"/><use xlink:href="#12" y="4.342"/><use xlink:href="#8" y="6.513"/><use xlink:href="#13" y="8.684"/><use xlink:href="#14" y="10.855"/><use xlink:href="#15" y="13.026"/><use xlink:href="#17" y="15.197"/></svg></svg></g></g></svg></svg>